HIERARCHY
ROOT root
{
	OFFSET	0	13.1	24.9
	CHANNELS 6  Xposition Yposition Zposition Xrotation Yrotation Zrotation
	JOINT spine_1
	{
		OFFSET	0	9.99999	0
		CHANNELS 3  Xrotation Yrotation Zrotation
		JOINT spine_2
		{
			OFFSET	0	112	-10
			CHANNELS 3  Xrotation Yrotation Zrotation
			JOINT spine_3
			{
				OFFSET	0	206.5	19.3
				CHANNELS 3  Xrotation Yrotation Zrotation
				JOINT spine_4
				{
					OFFSET	0	110.4	14.6
					CHANNELS 3  Xrotation Yrotation Zrotation
					JOINT neck_1
					{
						OFFSET	0	71.8	-50.3
						CHANNELS 3  Xrotation Yrotation Zrotation
						JOINT neck_2
						{
							OFFSET	0	86.2	-25.8
							CHANNELS 3  Xrotation Yrotation Zrotation
							JOINT head_ee
							{
								OFFSET	0	179.8	-8.7
								CHANNELS 3  Xrotation Yrotation Zrotation
								End Site
								{
									OFFSET	1	0	0
								}
							}
						}
					}
					JOINT left_clavicle
					{
						OFFSET	-43.2	22.4	-70.8
						CHANNELS 3  Xrotation Yrotation Zrotation
						JOINT left_shoulder
						{
							OFFSET	-93.9	-5.79999	48.7
							CHANNELS 3  Xrotation Yrotation Zrotation
							JOINT left_elbow
							{
								OFFSET	-291.4	-30.8	15.2
								CHANNELS 3  Xrotation Yrotation Zrotation
								JOINT left_lowarm_twist
								{
									OFFSET	-110.7	-3.89999	13.6
									CHANNELS 3  Xrotation Yrotation Zrotation
									JOINT left_hand
									{
										OFFSET	-110.7	-3.89999	13.6
										CHANNELS 3  Xrotation Yrotation Zrotation
										JOINT left_ee
										{
											OFFSET	-80.8	-5.10001	12.1
											CHANNELS 3  Xrotation Yrotation Zrotation
											End Site
											{
												OFFSET	1	0	0
											}
										}
									}
								}
							}
						}
					}
					JOINT right_clavicle
					{
						OFFSET	43.2	22.4	-70.8
						CHANNELS 3  Xrotation Yrotation Zrotation
						JOINT right_shoulder
						{
							OFFSET	93.9	-5.79999	48.7
							CHANNELS 3  Xrotation Yrotation Zrotation
							JOINT right_elbow
							{
								OFFSET	291.4	-30.8	15.2
								CHANNELS 3  Xrotation Yrotation Zrotation
								JOINT right_lowarm_twist
								{
									OFFSET	110.7	-3.89999	13.6
									CHANNELS 3  Xrotation Yrotation Zrotation
									JOINT right_hand
									{
										OFFSET	110.7	-3.89999	13.6
										CHANNELS 3  Xrotation Yrotation Zrotation
										JOINT right_ee
										{
											OFFSET	80.8	-5.10001	12.1
											CHANNELS 3  Xrotation Yrotation Zrotation
											End Site
											{
												OFFSET	1	0	0
											}
										}
									}
								}
							}
						}
					}
				}
			}
		}
	}
	JOINT left_hip
	{
		OFFSET	-82.8	-127.5	0.300001
		CHANNELS 3  Xrotation Yrotation Zrotation
		JOINT left_knee
		{
			OFFSET	-28.2	-396.7	2.2
			CHANNELS 3  Xrotation Yrotation Zrotation
			JOINT left_ankle
			{
				OFFSET	-11.7	-411.3	35.4
				CHANNELS 3  Xrotation Yrotation Zrotation
				JOINT left_toes
				{
					OFFSET	0	-60	-88.6
					CHANNELS 3  Xrotation Yrotation Zrotation
					JOINT left_foot_ee
					{
						OFFSET	-22.5	-16.5	-42.2
						CHANNELS 3  Xrotation Yrotation Zrotation
						End Site
						{
							OFFSET	1	0	0
						}
					}
				}
			}
		}
	}
	JOINT right_hip
	{
		OFFSET	82.8	-127.5	0.300001
		CHANNELS 3  Xrotation Yrotation Zrotation
		JOINT right_knee
		{
			OFFSET	28.2	-396.7	2.2
			CHANNELS 3  Xrotation Yrotation Zrotation
			JOINT right_ankle
			{
				OFFSET	11.7	-411.3	35.4
				CHANNELS 3  Xrotation Yrotation Zrotation
				JOINT right_toes
				{
					OFFSET	0	-60	-88.6
					CHANNELS 3  Xrotation Yrotation Zrotation
					JOINT right_foot_ee
					{
						OFFSET	22.5	-16.5	-42.2
						CHANNELS 3  Xrotation Yrotation Zrotation
						End Site
						{
							OFFSET	1	0	0
						}
					}
				}
			}
		}
	}
}
MOTION
Frames: 6
Frame Time: 0.02
1197.94 634.718 -1514.82 -61.6924 84.6446 63.036 3.23961 -0.348967 -1.83777 3.24146 -0.231338 -1.85624 3.24829 0.0580962 -1.86969 3.24349 -0.237864 -1.85541 -14.1708 10.6452 4.55297 -14.3537 17.5688 7.73084 -0.0 0.0 -0.0 -0.256272 19.4384 1.88908 9.02332 -23.6712 79.8528 1.79946 -41.7099 0.685576 -15.2505 -0.779494 1.78167 4.66421 -4.65691 30.9385 -0.0 0.0 -0.0 11.2422 -18.7004 -19.7416 -22.7999 -11.332 -50.7075 0.203115 5.74576 -0.010193 -29.7217 1.93016 -3.22912 6.83403 -17.4424 -60.9581 0.0 0.0 0.0 -12.4278 23.554 -8.44353 -6.88187 0.221564 1.03229 36.4571 -26.7532 -5.35191 -9.16642 0.0 0.0 -0.0 0.0 -0.0 33.7667 33.0757 -0.939379 -3.09804 -0.115102 -0.461461 -18.5852 -27.8221 -2.95521 0.682112 -0.0 -0.0 0.0 0.0 0.0 
1182.97 636.017 -1521.66 -70.7105 84.5001 71.812 3.40668 -0.153929 -1.74533 3.40837 -0.0425749 -1.75159 3.40896 0.223643 -1.73778 3.40475 -0.0535694 -1.75129 -13.2527 12.7231 4.31748 -13.5252 21.5622 8.03191 -0.0 0.0 -0.0 0.228477 18.849 2.5453 4.37751 -27.3939 77.0964 1.87873 -42.9389 0.73895 -17.0329 -0.900884 1.97487 5.00598 -5.14829 33.4251 -0.0 0.0 -0.0 11.3226 -18.055 -20.005 -21.1686 -10.7199 -51.9324 0.214469 6.0646 -0.0113611 -30.2153 1.97565 -3.27312 6.72945 -19.3566 -59.9098 0.0 0.0 0.0 -11.7837 24.068 -8.74208 -7.34349 0.231964 1.10237 36.3152 -25.7061 -5.27799 -9.82285 0.0 0.0 -0.0 0.0 -0.0 33.0031 33.2055 -0.698467 -3.12316 -0.115933 -0.465226 -16.7628 -27.6416 -2.65965 -0.214016 0.0 0.0 0.0 0.0 0.0 
1160.27 638.541 -1532.71 -90.0 84.4904 90.0 3.38095 0.0249734 -1.694 3.38254 0.132701 -1.68898 3.37794 0.388351 -1.64908 3.37416 0.123075 -1.6897 -12.6881 14.1553 3.98221 -13.0311 24.425 8.06394 -0.0 0.0 -0.0 0.487036 19.1522 2.96295 -0.353488 -29.9571 74.4151 1.90965 -43.4055 0.760108 -18.3764 -0.996339 2.11797 5.22916 -5.46479 35.0875 -0.0 0.0 -0.0 11.4142 -17.5652 -20.2581 -19.653 -10.1118 -52.784 0.233635 6.60197 -0.0134753 -30.5417 2.00595 -3.302 6.65912 -20.6959 -59.1772 0.0 0.0 0.0 -11.1438 24.2579 -9.11973 -7.46614 0.234632 1.121 36.2122 -24.9132 -5.22459 -10.2824 0.0 0.0 -0.0 0.0 -0.0 32.4209 33.3066 -0.203244 -3.18631 -0.118015 -0.474694 -15.4257 -27.6262 -2.4449 -0.796262 0.0 0.0 0.0 0.0 0.0 
1130.86 651.886 -1538.95 -111.077 84.0935 111.595 3.34705 -0.347382 -1.6419 3.34852 -0.242214 -1.66067 3.35497 0.014013 -1.67818 3.35113 -0.251163 -1.65934 -14.6219 16.9743 2.32042 -15.5061 31.0769 8.07284 -0.0 0.0 -0.0 3.14812 19.8437 6.96104 -11.4755 -30.3827 66.9791 1.96457 -44.2167 0.798126 -22.6514 -1.32206 2.55797 4.82358 -5.38384 31.8518 -0.0 0.0 -0.0 11.1969 -19.0856 -19.5892 -20.9935 -5.59601 -53.0972 0.344959 9.69739 -0.0292624 -31.8821 2.13206 -3.4188 6.37867 -22.0171 -55.8575 0.0 0.0 0.0 -10.1318 21.8836 -10.4629 -6.89176 0.221793 1.03379 32.2764 -28.0292 -4.96532 -7.33474 0.0 0.0 -0.0 0.0 -0.0 32.44 33.1813 -0.707638 -11.5185 -0.300287 -1.73922 -9.86046 -30.3445 -1.58146 1.13199 -0.0 -0.0 0.0 0.0 0.0 
1113.45 658.923 -1547.43 -115.347 83.1738 115.719 3.4357 -0.029857 -1.60967 3.43714 0.0726173 -1.6083 3.43446 0.315095 -1.57881 3.43099 0.0618301 -1.60875 -13.7218 16.6593 0.739707 -14.5299 31.3249 6.2081 -0.0 0.0 -0.0 4.64473 21.2933 9.1671 -17.2042 -30.6606 62.3692 1.88678 -43.0611 0.744441 -24.0609 -1.43657 2.69762 5.02387 -6.26229 33.0205 -0.0 0.0 -0.0 11.2303 -18.6655 -19.7285 -17.5655 -4.55401 -54.3086 0.383402 10.7541 -0.0360873 -32.2854 2.17055 -3.45337 6.38784 -23.0258 -56.0445 0.0 0.0 0.0 -5.67199 16.3455 -10.7463 -13.0629 0.313778 1.9758 37.2932 -21.7652 -5.17809 -9.4509 0.0 0.0 -0.0 0.0 -0.0 31.1697 33.532 -0.828364 -12.2163 -0.307173 -1.84607 -3.65258 -29.2375 -0.575977 0.834264 -0.0 -0.0 0.0 0.0 0.0 
1097.75 662.902 -1554.77 -125.508 82.4199 125.69 3.47646 -0.115656 -1.51111 3.47773 -0.0192775 -1.5154 3.47767 0.209033 -1.50105 3.47453 -0.0306246 -1.51522 -18.7771 17.8053 0.595323 -20.519 33.9398 8.33697 -0.0 0.0 -0.0 6.05279 21.5783 11.2184 -21.9394 -29.5713 58.7039 1.73359 -40.6514 0.642202 -26.9488 -1.68178 2.97481 4.68443 -3.89991 31.4499 -0.0 0.0 -0.0 11.0007 -18.0392 -19.46 -15.9274 -0.314714 -54.9341 0.479086 13.3509 -0.0560721 -33.9049 2.3275 -3.58944 6.3795 -23.9621 -55.9955 0.0 0.0 0.0 -4.80389 18.4784 -11.2249 -12.1156 0.306259 1.83064 37.2184 -20.832 -5.12915 -9.64725 0.0 0.0 -0.0 0.0 -0.0 30.0987 33.3094 -1.03068 -13.0084 -0.31341 -1.96744 -1.34122 -30.3117 -0.212117 1.00435 -0.0 -0.0 0.0 0.0 0.0 
